<svg xmlns="http://www.w3.org/2000/svg" viewBox="0 0 215 215">
  <path d="M107.5,215A107.5,107.5,0,1,1,215,107.5,107.5,107.5,0,0,1,107.5,215Zm0-207.833A100.333,100.333,0,1,0,207.833,107.5,100.333,100.333,0,0,0,107.5,7.167ZM148.041,148.04a3.583,3.583,0,0,1-5.068,0L107.5,112.567,72.026,148.04a3.583,3.583,0,1,1-5.067-5.067L102.432,107.5,66.959,72.027a3.583,3.583,0,1,1,5.067-5.068L107.5,102.432l35.473-35.473a3.584,3.584,0,0,1,5.068,5.068L112.567,107.5l35.474,35.473A3.583,3.583,0,0,1,148.041,148.04Z"/>
</svg>
