<svg width="24" height="24" viewBox="0 0 24 24" xmlns="http://www.w3.org/2000/svg">
<path d="M19.5 3.5L18 2L16.5 3.5L15 2L13.5 3.5L12 2L10.5 3.5L9 2L7.5 3.5L6 2L4.5 3.5L3 2V22L4.5 20.5L6 22L7.5 20.5L9 22L10.5 20.5L12 22L13.5 20.5L15 22L16.5 20.5L18 22L19.5 20.5L21 22V2L19.5 3.5ZM19 19.09H5V12V4.91H19V19.09Z"/>
<path d="M11.3716 17.2857V16.047C10.6211 15.9659 10.0455 15.741 9.64481 15.3724C9.25137 14.9963 9.03643 14.4396 9 13.7023H10.4426C10.4718 14.1816 10.6211 14.5134 10.8907 14.6977C11.1603 14.882 11.5501 14.9742 12.0601 14.9742C12.541 14.9742 12.9162 14.8931 13.1858 14.7309C13.4554 14.5613 13.5902 14.2848 13.5902 13.9014C13.5902 13.6359 13.5246 13.4295 13.3934 13.282C13.2696 13.1272 13.102 13.0055 12.8907 12.9171C12.6867 12.8286 12.4499 12.7622 12.1803 12.718C11.918 12.6664 11.6485 12.6147 11.3716 12.5631C11.0947 12.5041 10.8215 12.4341 10.5519 12.353C10.2896 12.2645 10.0528 12.1429 9.84153 11.988C9.63024 11.8258 9.45902 11.6157 9.32787 11.3576C9.20401 11.0922 9.14208 10.7567 9.14208 10.3512C9.14208 9.73917 9.33515 9.25253 9.72131 8.89124C10.1075 8.52995 10.6576 8.31244 11.3716 8.23871V7H12.6284V8.24977C13.2987 8.33088 13.827 8.53733 14.2131 8.86912C14.5993 9.20092 14.8106 9.69493 14.847 10.3512H13.4044C13.3679 9.94562 13.2186 9.67281 12.9563 9.53272C12.7013 9.38525 12.3588 9.31152 11.929 9.31152C11.4918 9.31152 11.153 9.39631 10.9126 9.5659C10.6721 9.72811 10.5519 9.98618 10.5519 10.3401C10.5519 10.6645 10.6612 10.9041 10.8798 11.059C11.0984 11.2065 11.3716 11.3207 11.6995 11.4018C12.0346 11.4829 12.3916 11.553 12.7705 11.612C13.1566 11.671 13.5137 11.7779 13.8415 11.9327C14.1767 12.0802 14.4536 12.3014 14.6721 12.5963C14.8907 12.8912 15 13.3078 15 13.8461C15 14.5244 14.7923 15.0479 14.377 15.4166C13.969 15.7779 13.3862 15.9917 12.6284 16.0581V17.2857H11.3716Z" stroke="#9198A0" stroke-width="0.5"/>
</svg>
