<svg width="25" height="25" viewBox="0 0 25 25" xmlns="http://www.w3.org/2000/svg">
<path fill-rule="evenodd" clip-rule="evenodd" d="M23.1273 0.292877C22.7368 -0.0976262 22.1036 -0.0976254 21.713 0.292878L12.0409 9.96395L2.3688 0.292878C1.97825 -0.0976254 1.34505 -0.0976262 0.954508 0.292877L0.292942 0.954372C-0.0976039 1.34487 -0.0976034 1.978 0.292942 2.36851L9.96506 12.0396L0.292909 21.7107C-0.0976361 22.1012 -0.0976366 22.7343 0.292909 23.1248L0.954475 23.7863C1.34502 24.1768 1.97822 24.1768 2.36877 23.7863L12.0409 14.1152L21.7131 23.7863C22.1036 24.1768 22.7368 24.1768 23.1274 23.7863L23.7889 23.1248C24.1795 22.7343 24.1795 22.1012 23.7889 21.7107L14.1168 12.0396L23.7889 2.36851C24.1794 1.978 24.1794 1.34487 23.7889 0.954372L23.1273 0.292877Z"/>
</svg>
