<svg width="20" height="20" viewBox="0 0 20 20" xmlns="http://www.w3.org/2000/svg">
<g clip-path="url(#clip0_3814_54975)">
<path fill-rule="evenodd" clip-rule="evenodd" d="M10 2.5C5.85786 2.5 2.5 5.85786 2.5 10C2.5 14.1421 5.85786 17.5 10 17.5C14.1421 17.5 17.5 14.1421 17.5 10C17.5 5.85786 14.1421 2.5 10 2.5ZM10.0833 14.75C10.6816 14.75 11.1667 14.265 11.1667 13.6667C11.1667 13.0684 10.6816 12.5833 10.0833 12.5833C9.48502 12.5833 9 13.0684 9 13.6667C9 14.265 9.48502 14.75 10.0833 14.75ZM11.1667 5H9V11.5H11.1667V5Z"/>
</g>
<defs>
<clipPath id="clip0_3814_54975">
<rect width="20" height="20" fill="white"/>
</clipPath>
</defs>
</svg>
