<svg width="10" height="10" viewBox="0 0 10 10" xmlns="http://www.w3.org/2000/svg">
<path opacity="0.5" d="M8.3673 4.375H7.90811V2.96875C7.90811 1.33203 6.60326 0 4.99995 0C3.39663 0 2.09178 1.33203 2.09178 2.96875V4.375H1.6326C1.12559 4.375 0.714233 4.79492 0.714233 5.3125V9.0625C0.714233 9.58008 1.12559 10 1.6326 10H8.3673C8.87431 10 9.28566 9.58008 9.28566 9.0625V5.3125C9.28566 4.79492 8.87431 4.375 8.3673 4.375ZM6.3775 4.375H3.6224V2.96875C3.6224 2.19336 4.24038 1.5625 4.99995 1.5625C5.75951 1.5625 6.3775 2.19336 6.3775 2.96875V4.375Z"/>
</svg>
