<?xml version="1.0" encoding="utf-8"?>
<svg version="1.1" id="Слой_1" x="0px" y="0px" viewBox="0 0 652.94 214.868" style="enable-background:new 0 0 200 400;" xmlns="http://www.w3.org/2000/svg">
  <g transform="matrix(1, 0, 0, 1, -100.141403, -100.861855)">
    <g>
      <g>
        <g>
          <ellipse style="fill:#FFC800;" cx="205.18" cy="204.41" rx="102.35" ry="102.29"/>
          <path d="M249.23,280.63c-34.75,20.06-72.45,23.65-96.53,11.62c30.82,18.36,70.4,19.95,103.68,0.75 c33.28-19.21,51.69-54.27,51.19-90.13C305.95,229.73,283.98,260.57,249.23,280.63z"/>
          <path d="M218.17,109.61c7.04,12.19-9.99,35.21-38.05,51.4s-56.51,19.43-63.56,7.23l0,0c-0.3-0.59-0.57-1.21-0.78-1.87 c-1.82-5.68,0.36-13.02,5.62-20.76c0.85-1.21,1.72-2.39,2.62-3.56c7.94-10.33,18-19.31,29.99-26.23 c11.99-6.92,24.79-11.14,37.72-12.85c1.51-0.22,2.97-0.38,4.4-0.48c9.33-0.69,16.77,1.09,20.79,5.5 C217.4,108.5,217.81,109.05,218.17,109.61L218.17,109.61z"/>
          <path d="M261.68,122.8c12.3,21.29-12.52,58.63-55.44,83.4s-87.69,27.58-99.99,6.29c-2.05-3.55-3.15-7.51-3.36-11.75 c-0.53,14.3,1.93,28.85,7.65,42.68c0.85,2.07,1.78,4.11,2.78,6.14c0.05,0.09,0.1,0.17,0.15,0.26 c3.71,6.42,9.19,11.46,16.01,15.11c24.07,12.87,64.79,8.45,102.86-13.52c38.05-21.96,62.24-54.99,63.14-82.26 c0.25-7.7-1.35-14.95-5.03-21.36c-1.39-2.09-2.84-4.12-4.36-6.08c-9.03-11.68-20.26-20.96-32.74-27.59 c3.49,2.29,6.31,5.18,8.32,8.67c0.01,0.02,0.02,0.04,0.04,0.06L261.68,122.8z"/>
        </g>
      </g>
      <radialGradient id="SVGID_1_" cx="205.1957" cy="2983.7415" r="102.32" gradientTransform="matrix(1 0 0 -1 0 3188.1558)" gradientUnits="userSpaceOnUse">
        <stop offset="0.5" style="stop-color:#FFFFFF;stop-opacity:0"/>
        <stop offset="1" style="stop-color:#FFFFFF;stop-opacity:0.35"/>
      </radialGradient>
      <ellipse style="fill:url(#SVGID_1_);" cx="205.2" cy="204.41" rx="102.35" ry="102.29"/>
    </g>
    <g>
      <g>
        <polygon points="449.6,172.52 449.6,130.24 437.03,130.24 437.03,191.87 450.12,191.87 475.43,148.87 475.43,191.87 488,191.87 &#10;&#9;&#9;&#9;&#9;488,130.24 474.92,130.24 &#9;&#9;&#9;"/>
        <path d="M654.58,124.9c10.16,0,17.39-5.34,18.77-17.05h-9.99c-1.03,4.13-3.44,6.2-8.78,6.2c-5.34,0-8.09-2.06-8.95-6.2h-9.99 C637.02,119.56,644.43,124.9,654.58,124.9z"/>
        <path d="M397.48,130.75c-9.95,0-18.45,4.64-22.85,13.25c0.63-13.97,3.39-22.27,19.57-24.44l25.14-3.44l-1.03-13.77l-26.18,3.62 c-22.55,3.1-28.92,20.49-28.92,47.86c0,23.93,10.84,39.25,30.99,39.25c19.63,0,30.31-15.15,30.31-32.89 S412.63,130.75,397.48,130.75z M394.21,179.48c-11.36,0-18.08-8.27-18.08-20.66v-6.37c2.41-4.82,8.78-8.61,18.08-8.61 c9.81,0,17.39,4.65,17.39,16.36S405.57,179.48,394.21,179.48z"/>
        <polygon points="733.05,130.24 733.05,153.31 708.6,153.31 708.6,130.24 696.03,130.24 696.03,191.87 708.6,191.87 708.6,166.05 &#10;&#9;&#9;&#9;&#9;733.05,166.05 733.05,191.87 745.61,191.87 745.61,130.24 &#9;&#9;&#9;"/>
        <polygon points="641.84,172.52 641.84,130.24 629.27,130.24 629.27,191.87 642.35,191.87 667.66,148.87 667.66,191.87 &#10;&#9;&#9;&#9;&#9;680.24,191.87 680.24,130.24 667.14,130.24 &#9;&#9;&#9;"/>
        <path d="M510.6,167.95c-1.38,6.89-3.27,9.81-7.06,9.81c-2.06,0-3.62-0.18-4.65-0.51v14.29c1.54,0.69,2.93,1.21,6.2,1.21 c6.54,0,11.2-3.78,13.43-9.64c1.38-3.62,2.23-8.61,2.93-14.98c0.69-6.37,1.21-14.8,1.21-24.79h16.7v48.55h12.57v-61.63h-39.78 C512.16,148.84,511.64,161.05,510.6,167.95z"/>
        <path d="M611.24,175.17l0.18-24.45c0.18-15.49-9.3-21.87-23.07-21.87c-11.36,0-21.69,6.2-23.24,20.66h12.05 c0.69-5.68,5.17-7.58,11.2-7.58c6.17,0,10.31,1.9,10.94,8.24l-15.41,6.22c-10.5,4.31-18.42,9.12-18.42,19.29 c0,10.5,5.86,17.21,17.57,17.21c8.08,0,13.2-3.8,17.29-11.21c0.61,7.42,5.53,10.69,14.05,10.69h3.44v-11.88h-1.03 C612.79,180.51,611.24,178.96,611.24,175.17z M587.65,180c-5.86,0-10.16-1.55-10.16-6.89c0-4.65,3.62-6.71,9.81-9.3l12.01-4.98 l-0.12,16.69C597.12,178.1,592.99,180,587.65,180z"/>
      </g>
      <g>
        <path d="M424.32,276.18c0,18.3-11.15,31.58-30.33,31.58s-30.58-13.16-30.58-39.22c0-27.57,6.77-43.48,28.7-46.62l26.57-3.63 v13.28l-24.56,3.76c-12.91,2.01-16.79,8.9-17.92,22.43c4.64-7.52,12.28-11.15,21.43-11.15 C413.79,246.61,424.32,257.88,424.32,276.18z M376.7,266.28v7.02c0,13.41,6.39,20.93,17.29,20.93c10.78,0,17.54-6.52,17.54-18.04 c0-11.53-6.52-16.92-16.79-16.92C387.1,259.26,380.58,261.52,376.7,266.28z"/>
        <path d="M448.88,285.7l26.57-40.6h12.15v61.4h-12.66v-41.1l-26.69,41.1h-12.15v-61.4h12.78V285.7z"/>
        <path d="M536.09,286.7c0-5.39-3.88-7.64-11.15-7.64h-9.27v-8.02h8.77c6.77,0,10.02-2.76,10.02-7.27c0-4.89-3.63-7.27-10.78-7.27 c-7.39,0-11.9,2.88-13.03,8.4h-10.9c1.5-13.16,10.65-21.05,24.44-21.05c13.53,0,22.31,6.52,22.31,17.79 c0,6.14-3.63,11.03-9.02,12.66c6.52,1.5,10.78,6.39,10.78,13.78c0,12.78-10.53,19.67-24.31,19.67 c-14.29,0-23.43-7.39-24.56-21.18h11.03c0.88,5.76,5.39,8.4,13.03,8.4C531.08,294.98,536.09,292.34,536.09,286.7z"/>
        <path d="M597.87,281.44h-25.19v25.06H559.9v-61.4h12.78v23.18h25.19V245.1h12.78v61.4h-12.78V281.44z"/>
        <path d="M651.5,307.76c-17.17,0-29.07-13.53-29.07-31.95c0-18.42,12.03-31.95,29.32-31.95c17.29,0,28.95,13.03,28.95,32.46 c0,0.5-0.13,2.13-0.13,2.63h-45.49c1,10.15,7.27,16.16,16.67,16.16c8.52,0,13.66-3.26,16.04-8.15h11.53 C676.69,298.23,668.17,307.76,651.5,307.76z M635.34,270.54h32.58c-1.25-8.27-6.64-14.03-16.17-14.03 C642.85,256.5,636.96,261.64,635.34,270.54z"/>
        <path d="M745.61,266.36h-11.4c-1.63-5.26-6.64-8.77-15.91-8.77c-10.53,0-16.92,7.39-16.92,18.05c0,10.78,6.39,18.3,16.92,18.3 c9.27,0,14.29-3.63,15.91-8.65h11.4c-2.51,13.78-12.53,22.43-27.44,22.43c-18.17,0-29.57-14.04-29.57-32.08 c0-17.92,11.4-31.83,29.57-31.83C733.08,243.8,743.1,252.58,745.61,266.36z"/>
      </g>
    </g>
  </g>
</svg>