<svg width="16" height="16" viewBox="0 0 16 16"  xmlns="http://www.w3.org/2000/svg">
<path d="M8.00016 1.33301C4.32016 1.33301 1.3335 4.31967 1.3335 7.99967C1.3335 11.6797 4.32016 14.6663 8.00016 14.6663C11.6802 14.6663 14.6668 11.6797 14.6668 7.99967C14.6668 4.31967 11.6802 1.33301 8.00016 1.33301ZM8.66683 12.6663H7.3335V11.333H8.66683V12.6663ZM10.0468 7.49967L9.44683 8.11301C8.96683 8.59967 8.66683 8.99967 8.66683 9.99967H7.3335V9.66634C7.3335 8.93301 7.6335 8.26634 8.1135 7.77967L8.94016 6.93967C9.18683 6.69967 9.3335 6.36634 9.3335 5.99967C9.3335 5.26634 8.7335 4.66634 8.00016 4.66634C7.26683 4.66634 6.66683 5.26634 6.66683 5.99967H5.3335C5.3335 4.52634 6.52683 3.33301 8.00016 3.33301C9.4735 3.33301 10.6668 4.52634 10.6668 5.99967C10.6668 6.58634 10.4268 7.11967 10.0468 7.49967Z"/>
</svg>
