<svg width="20" height="20" viewBox="0 0 20 20" xmlns="http://www.w3.org/2000/svg">
<g opacity="0.8">
<rect opacity="0.01" width="20" height="20" />
<path fill-rule="evenodd" clip-rule="evenodd" d="M9.99984 18.3334C14.6022 18.3334 18.3332 14.6025 18.3332 10.0001C18.3332 5.39771 14.6022 1.66675 9.99984 1.66675C5.39746 1.66675 1.6665 5.39771 1.6665 10.0001C1.6665 14.6025 5.39746 18.3334 9.99984 18.3334ZM9.99984 5.31258C8.27395 5.31258 6.87484 6.71169 6.87484 8.43758H8.43734C8.43734 7.57464 9.13689 6.87508 9.99984 6.87508C10.8628 6.87508 11.5623 7.57464 11.5623 8.43758C11.5623 9.30053 10.8628 10.0001 9.99984 10.0001H8.95817V12.6042H10.5207V11.5194C11.9986 11.2714 13.1248 9.98602 13.1248 8.43758C13.1248 6.71169 11.7257 5.31258 9.99984 5.31258ZM9.7915 15.2084C10.3668 15.2084 10.8332 14.742 10.8332 14.1667C10.8332 13.5915 10.3668 13.1251 9.7915 13.1251C9.21621 13.1251 8.74984 13.5915 8.74984 14.1667C8.74984 14.742 9.21621 15.2084 9.7915 15.2084Z" />
</g>
</svg>
