<svg width="20" height="20" viewBox="0 0 20 20" xmlns="http://www.w3.org/2000/svg">
<path fill-rule="evenodd" clip-rule="evenodd" d="M10 17.5C14.1421 17.5 17.5 14.1421 17.5 10C17.5 5.85786 14.1421 2.5 10 2.5C5.85786 2.5 2.5 5.85786 2.5 10C2.5 14.1421 5.85786 17.5 10 17.5ZM12.5927 5.14943C11.795 4.72306 10.9045 4.5 10 4.5V10L6.11091 13.8891C6.75048 14.5287 7.5379 15.0006 8.40343 15.2632C9.26897 15.5257 10.1859 15.5708 11.073 15.3943C11.9601 15.2179 12.79 14.8254 13.4892 14.2516C14.1883 13.6778 14.7352 12.9404 15.0813 12.1048C15.4275 11.2691 15.5622 10.361 15.4735 9.46091C15.3849 8.56078 15.0756 7.69641 14.5731 6.94436C14.0706 6.19232 13.3904 5.5758 12.5927 5.14943Z"/>
</svg>